{
  "asset": {
    "version": "2.0",
    "generator": "THREE.GLTFExporter"
  },
  "scenes": [
    {
      "nodes": [
        0
      ]
    }
  ],
  "scene": 0,
  "nodes": [
    {
      "children": [
        11
      ],
      "matrix": [
        0.01,
        0,
        0,
        0,
        0,
        0.01,
        0,
        0,
        0,
        0,
        0.01,
        0,
        0,
        0,
        0,
        1
      ]
    },
    {
      "matrix": [
        0.06567801289058432,
        0.009932887760213326,
        -0.019727402995821635,
        0,
        -0.01680862747035674,
        0.06262678452342808,
        -0.02442229194126199,
        0,
        0.014330009137343846,
        0.02794071883250197,
        0.061772581514481735,
        0,
        10.020090929223112,
        121.61639436533625,
        67.23264884549789,
        0.9999999999999994
      ],
      "name": "heart_lowpoly 4",
      "mesh": 0
    },
    {
      "matrix": [
        0.7574869508900147,
        -0.21647022032050744,
        0.14970316729961725,
        0,
        0.2627757619184806,
        0.5963656667690816,
        -0.46728338917731105,
        0,
        0.014808562837340047,
        0.4904543919339174,
        0.6342649850442846,
        0,
        0.9769249947459318,
        139.31624729968115,
        52.107018602572744,
        0.9999999999999998
      ],
      "name": "Star 2",
      "mesh": 1
    },
    {
      "matrix": [
        0.7486430839554696,
        -0.21532533106584648,
        0.19032974019008478,
        0,
        0.27716190037438576,
        0.6813663478146158,
        -0.3193400325678516,
        0,
        -0.075971634050479,
        0.36391177120418067,
        0.7105303715905009,
        0,
        -18.8505154873696,
        125.86157009168969,
        56.83551128849958,
        0.9999999999999998
      ],
      "name": "Star",
      "mesh": 2
    },
    {
      "matrix": [
        1,
        0,
        0,
        0,
        0,
        1.0000000000000087,
        0,
        0,
        0,
        0,
        1,
        0,
        0.7318878173828125,
        101.31297312858885,
        2.3966536269772405,
        1
      ],
      "name": "Sphere",
      "mesh": 3
    },
    {
      "matrix": [
        0.749427943974739,
        0,
        0,
        0,
        0,
        0.7494279439747454,
        0,
        0,
        0,
        0,
        0.749427943974739,
        0,
        -0.4347381591796875,
        42.37211894237592,
        -4.1033463730227595,
        1
      ],
      "name": "Cylinder 2",
      "mesh": 4
    },
    {
      "matrix": [
        1,
        0,
        0,
        0,
        0,
        1.0000000000000087,
        0,
        0,
        0,
        0,
        1,
        0,
        -0.4347381591796875,
        15.312973128588155,
        -4.1033463730227595,
        1
      ],
      "name": "Cylinder",
      "mesh": 5
    },
    {
      "matrix": [
        0.8640133329087587,
        0,
        0,
        0,
        0,
        0.8640133329087574,
        0,
        0,
        0,
        0,
        0.8640133329087576,
        0,
        -14.730897803741662,
        -39.02288783418723,
        36.76838678513387,
        0.9999999999999999
      ],
      "name": "Crystal Ball",
      "children": [
        1,
        2,
        3,
        4,
        5,
        6
      ]
    },
    {
      "matrix": [
        0.6782844626542883,
        0.5767679584694602,
        -0.45526795385218405,
        0,
        -0.6477958779481674,
        0.7618139540027886,
        0,
        0,
        0.34682948005489145,
        0.2949207038673413,
        0.8903544744624163,
        0,
        0,
        0,
        0,
        1
      ],
      "name": "Directional Light",
      "extensions": {
        "KHR_lights_punctual": {
          "light": 0
        }
      }
    },
    {
      "matrix": [
        0.8744791374132028,
        -1.4120058469679897e-8,
        0.4850631280865004,
        0,
        0.1549851510970917,
        0.947581083159502,
        -0.27940954489365005,
        0,
        -0.4596366403676631,
        0.3195154000017289,
        0.828639890418789,
        0,
        -458.92923935897835,
        331.74378692891065,
        894.4047217243136,
        1
      ],
      "camera": 0
    },
    {
      "matrix": [
        1,
        0,
        0,
        0,
        0,
        1,
        0,
        0,
        0,
        0,
        1,
        0,
        0,
        1,
        0,
        1
      ],
      "name": "Default Ambient Light"
    },
    {
      "name": "Scene",
      "children": [
        7,
        8,
        9,
        10
      ]
    }
  ],
  "bufferViews": [
    {
      "buffer": 0,
      "byteOffset": 0,
      "byteLength": 21504,
      "target": 34962,
      "byteStride": 12
    },
    {
      "buffer": 0,
      "byteOffset": 21504,
      "byteLength": 21504,
      "target": 34962,
      "byteStride": 12
    },
    {
      "buffer": 0,
      "byteOffset": 43008,
      "byteLength": 10752,
      "target": 34963
    },
    {
      "buffer": 0,
      "byteOffset": 53760,
      "byteLength": 19680,
      "target": 34962,
      "byteStride": 12
    },
    {
      "buffer": 0,
      "byteOffset": 73440,
      "byteLength": 19680,
      "target": 34962,
      "byteStride": 12
    },
    {
      "buffer": 0,
      "byteOffset": 93120,
      "byteLength": 13120,
      "target": 34962,
      "byteStride": 8
    },
    {
      "buffer": 0,
      "byteOffset": 106240,
      "byteLength": 19632,
      "target": 34963
    },
    {
      "buffer": 0,
      "byteOffset": 125872,
      "byteLength": 19680,
      "target": 34962,
      "byteStride": 12
    },
    {
      "buffer": 0,
      "byteOffset": 145552,
      "byteLength": 19680,
      "target": 34962,
      "byteStride": 12
    },
    {
      "buffer": 0,
      "byteOffset": 165232,
      "byteLength": 13120,
      "target": 34962,
      "byteStride": 8
    },
    {
      "buffer": 0,
      "byteOffset": 178352,
      "byteLength": 19632,
      "target": 34963
    },
    {
      "buffer": 0,
      "byteOffset": 197984,
      "byteLength": 5292,
      "target": 34962,
      "byteStride": 12
    },
    {
      "buffer": 0,
      "byteOffset": 203276,
      "byteLength": 5292,
      "target": 34962,
      "byteStride": 12
    },
    {
      "buffer": 0,
      "byteOffset": 208568,
      "byteLength": 3528,
      "target": 34962,
      "byteStride": 8
    },
    {
      "buffer": 0,
      "byteOffset": 212096,
      "byteLength": 4560,
      "target": 34963
    },
    {
      "buffer": 0,
      "byteOffset": 216656,
      "byteLength": 13056,
      "target": 34962,
      "byteStride": 12
    },
    {
      "buffer": 0,
      "byteOffset": 229712,
      "byteLength": 13056,
      "target": 34962,
      "byteStride": 12
    },
    {
      "buffer": 0,
      "byteOffset": 242768,
      "byteLength": 6528,
      "target": 34963
    },
    {
      "buffer": 0,
      "byteOffset": 249296,
      "byteLength": 13056,
      "target": 34962,
      "byteStride": 12
    },
    {
      "buffer": 0,
      "byteOffset": 262352,
      "byteLength": 13056,
      "target": 34962,
      "byteStride": 12
    },
    {
      "buffer": 0,
      "byteOffset": 275408,
      "byteLength": 6528,
      "target": 34963
    }
  ],
  "buffers": [
    {
      "byteLength": 281936,
      "uri": "data:application/octet-stream;base64,"
    }
  ],
  "accessors": [
    {
      "bufferView": 0,
      "componentType": 5126,
      "count": 1792,
      "max": [
        135.57443237304688,
        120.7027587890625,
        69.1912612915039
      ],
      "min": [
        -135.57443237304688,
        -119.73281860351562,
        -85.55616760253906
      ],
      "type": "VEC3"
    },
    {
      "bufferView": 1,
      "componentType": 5126,
      "count": 1792,
      "max": [
        0.9989436864852905,
        1,
        0.9992402195930481
      ],
      "min": [
        -0.998955488204956,
        -0.9999980330467224,
        -0.9997304081916809
      ],
      "type": "VEC3"
    },
    {
      "bufferView": 2,
      "componentType": 5125,
      "count": 2688,
      "max": [
        1791
      ],
      "min": [
        0
      ],
      "type": "SCALAR"
    },
    {
      "bufferView": 3,
      "componentType": 5126,
      "count": 1640,
      "max": [
        12.441107749938965,
        13.046802520751953,
        5
      ],
      "min": [
        -12.441107749938965,
        -10.681827545166016,
        0
      ],
      "type": "VEC3"
    },
    {
      "bufferView": 4,
      "componentType": 5126,
      "count": 1640,
      "max": [
        0.9999799132347107,
        1,
        1
      ],
      "min": [
        -0.9999799132347107,
        -0.9999978542327881,
        -1
      ],
      "type": "VEC3"
    },
    {
      "bufferView": 5,
      "componentType": 5126,
      "count": 1640,
      "max": [
        1,
        1
      ],
      "min": [
        0,
        0
      ],
      "type": "VEC2"
    },
    {
      "bufferView": 6,
      "componentType": 5125,
      "count": 4908,
      "max": [
        1639
      ],
      "min": [
        0
      ],
      "type": "SCALAR"
    },
    {
      "bufferView": 7,
      "componentType": 5126,
      "count": 1640,
      "max": [
        17.671918869018555,
        18.529748916625977,
        7
      ],
      "min": [
        -17.671918869018555,
        -15.131421089172363,
        0
      ],
      "type": "VEC3"
    },
    {
      "bufferView": 8,
      "componentType": 5126,
      "count": 1640,
      "max": [
        0.9999799132347107,
        1,
        1
      ],
      "min": [
        -0.9999799132347107,
        -0.9999978542327881,
        -1
      ],
      "type": "VEC3"
    },
    {
      "bufferView": 9,
      "componentType": 5126,
      "count": 1640,
      "max": [
        1,
        1
      ],
      "min": [
        0,
        0
      ],
      "type": "VEC2"
    },
    {
      "bufferView": 10,
      "componentType": 5125,
      "count": 4908,
      "max": [
        1639
      ],
      "min": [
        0
      ],
      "type": "SCALAR"
    },
    {
      "bufferView": 11,
      "componentType": 5126,
      "count": 441,
      "max": [
        63,
        63,
        63
      ],
      "min": [
        -63,
        -63,
        -63
      ],
      "type": "VEC3"
    },
    {
      "bufferView": 12,
      "componentType": 5126,
      "count": 441,
      "max": [
        1,
        1,
        1
      ],
      "min": [
        -1,
        -1,
        -1
      ],
      "type": "VEC3"
    },
    {
      "bufferView": 13,
      "componentType": 5126,
      "count": 441,
      "max": [
        1.024999976158142,
        1
      ],
      "min": [
        -0.02500000037252903,
        0
      ],
      "type": "VEC2"
    },
    {
      "bufferView": 14,
      "componentType": 5123,
      "count": 2280,
      "max": [
        440
      ],
      "min": [
        0
      ],
      "type": "SCALAR"
    },
    {
      "bufferView": 15,
      "componentType": 5126,
      "count": 1088,
      "max": [
        64.1139907836914,
        19.520000457763672,
        64.1139907836914
      ],
      "min": [
        -64.1139907836914,
        -19.51999855041504,
        -64.1139907836914
      ],
      "type": "VEC3"
    },
    {
      "bufferView": 16,
      "componentType": 5126,
      "count": 1088,
      "max": [
        0.9984261989593506,
        1,
        0.9984261989593506
      ],
      "min": [
        -0.9984261989593506,
        -1,
        -0.9984261989593506
      ],
      "type": "VEC3"
    },
    {
      "bufferView": 17,
      "componentType": 5125,
      "count": 1632,
      "max": [
        1087
      ],
      "min": [
        0
      ],
      "type": "SCALAR"
    },
    {
      "bufferView": 18,
      "componentType": 5126,
      "count": 1088,
      "max": [
        62.07170486450195,
        16,
        62.07170486450195
      ],
      "min": [
        -62.07170486450195,
        -15.999999046325684,
        -62.07170486450195
      ],
      "type": "VEC3"
    },
    {
      "bufferView": 19,
      "componentType": 5126,
      "count": 1088,
      "max": [
        0.9999006390571594,
        1,
        0.9999006390571594
      ],
      "min": [
        -0.9999006390571594,
        -1,
        -0.9999006390571594
      ],
      "type": "VEC3"
    },
    {
      "bufferView": 20,
      "componentType": 5125,
      "count": 1632,
      "max": [
        1087
      ],
      "min": [
        0
      ],
      "type": "SCALAR"
    }
  ],
  "meshes": [
    {
      "primitives": [
        {
          "mode": 4,
          "attributes": {
            "POSITION": 0,
            "NORMAL": 1
          },
          "extras": {
            "type": "SubdivGeometry",
            "parameters": {
              "width": 279.6076965332031,
              "height": 249.28128814697266,
              "depth": 156.2208480834961
            }
          },
          "indices": 2
        }
      ]
    },
    {
      "primitives": [
        {
          "mode": 4,
          "attributes": {
            "POSITION": 3,
            "NORMAL": 4,
            "TEXCOORD_0": 5
          },
          "extras": {
            "shape": {
              "points": [
                -2.663606788145493e-15,
                14.5,
                -2.663606788145493e-15,
                14.5,
                -2.663606788145493e-15,
                14.5,
                2,
                -3.254890223832185,
                4.479972057200989,
                -3.254890223832185,
                4.479972057200989,
                -3.254890223832185,
                4.479972057200989,
                2,
                -13.790319486279728,
                4.480746418436736,
                -13.790319486279728,
                4.480746418436736,
                -13.790319486279728,
                4.480746418436736,
                2,
                -5.266523011810227,
                -1.7111970572009905,
                -5.266523011810227,
                -1.7111970572009905,
                -5.266523011810227,
                -1.7111970572009905,
                2,
                -8.522886158240858,
                -11.730746418436738,
                -8.522886158240858,
                -11.730746418436738,
                -8.522886158240858,
                -11.730746418436738,
                2,
                3.3907714413092126e-16,
                -5.5375499999999995,
                3.3907714413092126e-16,
                -5.5375499999999995,
                3.3907714413092126e-16,
                -5.5375499999999995,
                2,
                8.52288615824086,
                -11.730746418436738,
                8.52288615824086,
                -11.730746418436738,
                8.52288615824086,
                -11.730746418436738,
                2,
                5.266523011810227,
                -1.7111970572009898,
                5.266523011810227,
                -1.7111970572009898,
                5.266523011810227,
                -1.7111970572009898,
                2,
                13.790319486279726,
                4.480746418436738,
                13.790319486279726,
                4.480746418436738,
                13.790319486279726,
                4.480746418436738,
                2,
                3.2548902238321844,
                4.47997205720099,
                3.2548902238321844,
                4.47997205720099,
                3.2548902238321844,
                4.47997205720099,
                2
              ],
              "shapeHoles": [],
              "isClosed": true,
              "roundness": 2
            },
            "parameters": {
              "width": 29,
              "depth": 5,
              "innerRadiusPercent": 38.19,
              "spikes": 5,
              "cornerRadius": 2,
              "angle": 360,
              "extrudeBevelSize": 0,
              "extrudeBevelSegments": 1,
              "height": 29,
              "type": "StarGeometry"
            },
            "type": "StarGeometry"
          },
          "indices": 6
        }
      ]
    },
    {
      "primitives": [
        {
          "mode": 4,
          "attributes": {
            "POSITION": 7,
            "NORMAL": 8,
            "TEXCOORD_0": 9
          },
          "extras": {
            "shape": {
              "points": [
                -3.673940397442059e-15,
                20,
                -3.673940397442059e-15,
                20,
                -3.673940397442059e-15,
                20,
                2,
                -4.489503757009911,
                6.1792718030358476,
                -4.489503757009911,
                6.1792718030358476,
                -4.489503757009911,
                6.1792718030358476,
                2,
                -19.021130325903073,
                6.1803398874989455,
                -19.021130325903073,
                6.1803398874989455,
                -19.021130325903073,
                6.1803398874989455,
                2,
                -7.2641696714623825,
                -2.360271803035849,
                -7.2641696714623825,
                -2.360271803035849,
                -7.2641696714623825,
                -2.360271803035849,
                2,
                -11.75570504584946,
                -16.18033988749895,
                -11.75570504584946,
                -16.18033988749895,
                -11.75570504584946,
                -16.18033988749895,
                2,
                4.676926125943742e-16,
                -7.638,
                4.676926125943742e-16,
                -7.638,
                4.676926125943742e-16,
                -7.638,
                2,
                11.755705045849464,
                -16.18033988749895,
                11.755705045849464,
                -16.18033988749895,
                11.755705045849464,
                -16.18033988749895,
                2,
                7.2641696714623825,
                -2.360271803035848,
                7.2641696714623825,
                -2.360271803035848,
                7.2641696714623825,
                -2.360271803035848,
                2,
                19.02113032590307,
                6.180339887498948,
                19.02113032590307,
                6.180339887498948,
                19.02113032590307,
                6.180339887498948,
                2,
                4.48950375700991,
                6.179271803035848,
                4.48950375700991,
                6.179271803035848,
                4.48950375700991,
                6.179271803035848,
                2
              ],
              "shapeHoles": [],
              "isClosed": true,
              "roundness": 2
            },
            "parameters": {
              "width": 40,
              "depth": 7,
              "innerRadiusPercent": 38.19,
              "spikes": 5,
              "cornerRadius": 2,
              "angle": 360,
              "extrudeBevelSize": 0,
              "extrudeBevelSegments": 1,
              "height": 40,
              "type": "StarGeometry"
            },
            "type": "StarGeometry"
          },
          "indices": 10
        }
      ]
    },
    {
      "primitives": [
        {
          "mode": 4,
          "attributes": {
            "POSITION": 11,
            "NORMAL": 12,
            "TEXCOORD_0": 13
          },
          "extras": {
            "parameters": {
              "width": 126,
              "widthSegments": 20,
              "heightSegments": 20,
              "phiStart": 0,
              "phiLength": 6.283185307179586,
              "thetaStart": 0,
              "thetaLength": 180,
              "height": 126,
              "depth": 126,
              "type": "SphereGeometry"
            },
            "type": "SphereGeometry"
          },
          "indices": 14
        }
      ]
    },
    {
      "primitives": [
        {
          "mode": 4,
          "attributes": {
            "POSITION": 15,
            "NORMAL": 16
          },
          "extras": {
            "type": "SubdivGeometry",
            "parameters": {
              "width": 132.85826110839844,
              "height": 39.03999900817871,
              "depth": 132.85826110839844
            }
          },
          "indices": 17
        }
      ]
    },
    {
      "primitives": [
        {
          "mode": 4,
          "attributes": {
            "POSITION": 18,
            "NORMAL": 19
          },
          "extras": {
            "type": "SubdivGeometry",
            "parameters": {
              "width": 126.59429931640625,
              "height": 31.999999046325684,
              "depth": 126.59429931640625
            }
          },
          "indices": 20
        }
      ]
    }
  ],
  "extensions": {
    "KHR_lights_punctual": {
      "lights": [
        {
          "name": "Directional Light",
          "color": [
            1,
            1,
            1
          ],
          "intensity": 0.7,
          "type": "directional"
        }
      ]
    }
  },
  "cameras": [
    {
      "type": "orthographic",
      "orthographic": {
        "xmag": 3.029360923933957,
        "ymag": 1.5667476028470935,
        "zfar": 100000,
        "znear": 0
      }
    }
  ],
  "extensionsUsed": [
    "KHR_lights_punctual"
  ]
}